<svg width="228" height="20" fill="none" xmlns="http://www.w3.org/2000/svg"><path d="M25.327 2.563c-.632-.639-1.49-1.146-2.578-1.522-1.087-.373-2.335-.563-3.743-.563H1.173c-.53 0-.96.432-.96.962v15.762a2.468 2.468 0 002.47 2.467 2.468 2.468 0 002.47-2.467v-3.676h13.853c1.408 0 2.656-.186 3.743-.563 1.088-.373 1.95-.88 2.578-1.521.632-.639 1.107-1.332 1.424-2.085.322-.75.482-1.535.482-2.357 0-.821-.16-1.606-.482-2.356-.317-.746-.795-1.443-1.424-2.081zm-3.704 6.015c-.449.285-1.32.425-2.62.425H5.149V5.22h13.854c1.333 0 2.217.115 2.646.344.429.229.645.707.645 1.44 0 .766-.223 1.293-.671 1.574zM52.153 14.924H35.051V2.945A2.468 2.468 0 0032.58.478a2.468 2.468 0 00-2.47 2.467v15.762c0 .53.43.96.96.96h21.082a2.37 2.37 0 002.371-2.37 2.372 2.372 0 00-2.37-2.373zM73.808 1.028c-.292-.403-.694-.603-1.209-.603h-1.81c-.512 0-.915.203-1.206.603l-12.89 17.49c-.24.31-.299.579-.177.808.117.229.38.343.782.343h3.924c.547 0 .933-.2 1.153-.602l2.358-3.263h13.935l2.358 3.263c.256.403.639.602 1.153.602h3.924c.402 0 .661-.114.782-.343.118-.23.06-.498-.177-.809l-12.9-17.49zm-6.17 10.718l4.06-5.62 4.062 5.62h-8.122zM155.927 1.028c-.291-.403-.694-.603-1.208-.603h-1.811c-.511 0-.914.203-1.206.603l-12.89 17.49c-.239.31-.298.579-.177.808.118.229.38.343.783.343h3.917c.547 0 .933-.2 1.152-.602l2.358-3.263h13.936l2.358 3.263c.255.403.639.602 1.153.602h3.923c.403 0 .662-.114.783-.343.118-.23.059-.498-.177-.809l-12.894-17.49zm-6.173 10.718l4.061-5.62 4.061 5.62h-8.122zM107.656.478h-4.582c-.459 0-.858.147-1.205.438l-6.914 6.166L88.018.916c-.275-.29-.678-.438-1.205-.438h-4.582c-.439 0-.704.118-.796.357-.091.238.026.51.357.821l10.644 9.429v6.113a2.47 2.47 0 004.94 0v-6.057l10.718-9.482c.348-.31.472-.586.371-.821-.099-.24-.371-.36-.809-.36zM225.27.478a2.468 2.468 0 00-2.469 2.467v5.263h-17.774V2.945a2.469 2.469 0 00-2.47-2.467 2.468 2.468 0 00-2.469 2.467v14.253a2.47 2.47 0 004.939 0v-4.33h17.774v4.33a2.47 2.47 0 004.938 0V2.945A2.47 2.47 0 00225.27.478zM124.775 4.703c4.758 0 8.282.913 8.315.92a2.352 2.352 0 002.879-1.666 2.352 2.352 0 00-1.667-2.877c-.171-.046-4.12-1.08-9.527-1.08-10.147 0-15.966 3.646-15.966 10.002 0 6.355 5.819 10.001 15.966 10.001 5.41 0 9.36-1.034 9.524-1.08a2.349 2.349 0 001.667-2.873 2.357 2.357 0 00-2.876-1.673c-.036.01-3.56.92-8.319.92-2.643 0-11.263-.383-11.263-5.299 0-4.915 8.624-5.295 11.267-5.295zM195.47 11.046a10.92 10.92 0 00-1.234-.933c-.413-.265-.983-.5-1.713-.714a94.109 94.109 0 00-1.88-.52c-.521-.137-1.248-.265-2.181-.383-.934-.118-1.661-.206-2.182-.262-.52-.055-1.274-.127-2.263-.219a7.023 7.023 0 01-.576-.056c-.603-.055-1.235-.114-1.893-.176a93.4 93.4 0 00-1.647-.15c-.439-.037-.901-.08-1.386-.125a36.726 36.726 0 01-1.179-.125 14.477 14.477 0 01-.904-.137 7.117 7.117 0 01-.727-.164 2.988 2.988 0 01-.494-.193.694.694 0 01-.302-.245.625.625 0 01-.082-.33c0-.148.05-.289.151-.426.102-.138.321-.285.658-.439.338-.154.783-.291 1.33-.412.55-.118 1.307-.216 2.276-.288.97-.072 2.093-.111 3.374-.111h.684c.351 0 .694.006 1.035.016.069.006.138.02.21.02.19 0 .373.003.56.006 4.49.069 7.755.91 7.785.916.193.053.386.076.576.076.075 0 .151-.01.226-.02a2.227 2.227 0 002.001-2.075 2.223 2.223 0 00-.272-1.201 2.211 2.211 0 00-1.379-1.087c-.134-.036-2.813-.736-6.753-.985a45.58 45.58 0 00-3.986-.163h-.684c-8.578 0-12.865 1.993-12.865 5.976 0 .51.059.982.177 1.41.118.43.275.809.469 1.14.193.33.484.634.877.919.393.285.777.527 1.153.726.374.2.888.39 1.536.564a30.18 30.18 0 001.798.425c.547.108 1.281.229 2.194.357.914.127 1.733.229 2.457.3.724.073 1.67.164 2.839.276.531.055 1.111.104 1.743.15l1.549.111c.403.027.841.066 1.316.109.475.045.858.088 1.153.124.292.036.593.078.904.124.311.046.554.102.727.164.174.065.337.137.495.22a.803.803 0 01.33.287.734.734 0 01.095.383c0 .275-.206.52-.615.74-.413.219-1.212.415-2.401.589-1.189.173-2.715.262-4.582.262h-.331c-.402 0-.789-.004-1.172-.01a2.174 2.174 0 00-.36-.036c-2.191 0-4.114-.193-5.565-.403-1.713-.248-2.764-.517-2.78-.523a2.227 2.227 0 00-2.728 1.58c-.266.992.19 2 1.038 2.491.167.098.347.183.544.236.072.02.858.225 2.164.451l.046.01c2.24.465 5.178.7 8.82.7h.331c2.561 0 4.755-.196 6.583-.589 1.827-.392 3.301-1.06 4.414-2 1.117-.942 1.674-2.133 1.674-3.576 0-.567-.092-1.084-.275-1.548-.183-.465-.491-.878-.901-1.234z" stroke="#fff"/></svg>